<?xml version="1.0" encoding="UTF-8" standalone="no"?>
<!-- Created with Inkscape (http://www.inkscape.org/) -->

<svg
   xmlns:dc="http://purl.org/dc/elements/1.1/"
   xmlns:cc="http://creativecommons.org/ns#"
   xmlns:rdf="http://www.w3.org/1999/02/22-rdf-syntax-ns#"
   xmlns:svg="http://www.w3.org/2000/svg"
   xmlns="http://www.w3.org/2000/svg"
   xmlns:xlink="http://www.w3.org/1999/xlink"
   xmlns:sodipodi="http://sodipodi.sourceforge.net/DTD/sodipodi-0.dtd"
   xmlns:inkscape="http://www.inkscape.org/namespaces/inkscape"
   id="svg3234"
   version="1.1"
   inkscape:version="0.48.2 r9819"
   sodipodi:docname="Sea_waves2.svg"
   viewBox="0 0 825 59"
   width="100%"
   height="100%">
  <defs
     id="defs3236">
    <linearGradient
       gradientTransform="translate(-3637.4855,-2434.4683)"
       inkscape:collect="always"
       xlink:href="#linearGradient7605"
       id="linearGradient7611"
       x1="4028"
       y1="2789.5737"
       x2="4028"
       y2="3124.3181"
       gradientUnits="userSpaceOnUse" />
    <linearGradient
       inkscape:collect="always"
       id="linearGradient7605">
      <stop
         style="stop-color:#a4cbd8;stop-opacity:1"
         offset="0"
         id="stop7607" />
      <stop
         style="stop-color:#b4c3dc;stop-opacity:0;"
         offset="1"
         id="stop7609" />
    </linearGradient>
  </defs>
  <sodipodi:namedview
     id="base"
     pagecolor="#ffffff"
     bordercolor="#666666"
     borderopacity="1.0"
     inkscape:pageopacity="0"
     inkscape:pageshadow="2"
     inkscape:zoom="1.4142136"
     inkscape:cx="283.1509"
     inkscape:cy="39.571471"
     inkscape:document-units="px"
     inkscape:current-layer="layer1"
     showgrid="false"
     fit-margin-top="0"
     fit-margin-left="0"
     fit-margin-right="0"
     fit-margin-bottom="0"
     inkscape:window-width="1280"
     inkscape:window-height="752"
     inkscape:window-x="0"
     inkscape:window-y="0"
     inkscape:window-maximized="1" />
  <metadata
     id="metadata3239">
    <rdf:RDF>
      <cc:Work
         rdf:about="">
        <dc:format>image/svg+xml</dc:format>
        <dc:type
           rdf:resource="http://purl.org/dc/dcmitype/StillImage" />
        <dc:title />
      </cc:Work>
    </rdf:RDF>
  </metadata>
  <g
     inkscape:label="Layer 1"
     inkscape:groupmode="layer"
     id="layer1"
     transform="translate(74.079315,-750.94333)">
    <path
       style="color:#000000;fill:#275e85;fill-opacity:1;fill-rule:nonzero;stroke:none;stroke-width:1;marker:none;visibility:visible;display:inline;overflow:visible;enable-background:accumulate"
       d="m 588.47121,753.1522 c -8.11278,0.096 -14.55265,2.4316 -19.96228,6.6411 -4.85297,3.9117 -6.71944,8.1422 -4.78872,8.6927 15.03517,-7.66258 24.08186,-0.95079 24.05148,9.5052 0,12.7242 -11.06984,19.0323 -23.53241,22.6435 -10.00439,2.8988 -23.38523,3.0482 -33.31179,-0.023 -0.0102,0 -0.0102,0 -0.0102,0 -60.97992,-24.2875 -174.19857,-22.71243 -210.89976,-5.882 -43.76641,20.0704 -87.23436,-4.4199 -151.27694,-11.2529 -25.93729,-2.7674 -61.41217,7.6813 -76.325277,18.9702 -25.042313,18.3166 -162.717598,-45.69457 -167.782792,5.9151 53.870502,-7.9685 -7.270703,-30.4175 -0.155259,1.9927 l 827.553618,0 0,-44.0274 c -37.32766,-5.2548 -85.25649,-3.54613 -116.90173,14.3383 -15.54972,-18.60173 -23.51502,-27.63843 -46.66041,-27.5136 z m -27.69264,20.5235 c -1.8106,0.088 -3.24418,4.3822 -3.24418,6.1395 0,1.8142 1.53001,3.2826 3.42273,3.2826 1.89272,0 3.4305,-1.4684 3.4305,-3.2826 0,-1.814 -1.53778,-6.1395 -3.4305,-6.1395 -0.0593,0 -0.12002,-0.01 -0.17855,0 z"
       id="path6690"
       inkscape:connector-curvature="0"
       inkscape:export-filename="J:\Newsletters\Semptember\Swim Season\Banner 1.png"
       inkscape:export-xdpi="90"
       inkscape:export-ydpi="90"
       sodipodi:nodetypes="ccccsccsscccccccccssssc" />
  </g>
</svg>
