<?xml version="1.0" encoding="UTF-8" standalone="no"?>
<!-- Created with Inkscape (http://www.inkscape.org/) -->

<svg
   xmlns:dc="http://purl.org/dc/elements/1.1/"
   xmlns:cc="http://creativecommons.org/ns#"
   xmlns:rdf="http://www.w3.org/1999/02/22-rdf-syntax-ns#"
   xmlns:svg="http://www.w3.org/2000/svg"
   xmlns="http://www.w3.org/2000/svg"
   xmlns:xlink="http://www.w3.org/1999/xlink"
   xmlns:sodipodi="http://sodipodi.sourceforge.net/DTD/sodipodi-0.dtd"
   xmlns:inkscape="http://www.inkscape.org/namespaces/inkscape"
   id="svg3234"
   version="1.1"
   inkscape:version="0.48.4 r9939"
   sodipodi:docname="Sea_waves.svg"
   viewBox="0 0 825 171"
   width="100%"
   height="100%">
  <defs
     id="defs3236">
    <linearGradient
       gradientTransform="translate(-3637.4855,-2434.4683)"
       inkscape:collect="always"
       xlink:href="#linearGradient7605"
       id="linearGradient7611"
       x1="4028"
       y1="2789.5737"
       x2="4028"
       y2="3124.3181"
       gradientUnits="userSpaceOnUse" />
    <linearGradient
       inkscape:collect="always"
       id="linearGradient7605">
      <stop
         style="stop-color:#a4cbd8;stop-opacity:1"
         offset="0"
         id="stop7607" />
      <stop
         style="stop-color:#b4c3dc;stop-opacity:0;"
         offset="1"
         id="stop7609" />
    </linearGradient>
  </defs>
  <sodipodi:namedview
     id="base"
     pagecolor="#ffffff"
     bordercolor="#666666"
     borderopacity="1.0"
     inkscape:pageopacity="0.0"
     inkscape:pageshadow="2"
     inkscape:zoom="1"
     inkscape:cx="530.08498"
     inkscape:cy="102.75043"
     inkscape:document-units="px"
     inkscape:current-layer="layer1"
     showgrid="false"
     fit-margin-top="0"
     fit-margin-left="0"
     fit-margin-right="0"
     fit-margin-bottom="0"
     inkscape:window-width="1440"
     inkscape:window-height="838"
     inkscape:window-x="-8"
     inkscape:window-y="-8"
     inkscape:window-maximized="1" />
  <metadata
     id="metadata3239">
    <rdf:RDF>
      <cc:Work
         rdf:about="">
        <dc:format>image/svg+xml</dc:format>
        <dc:type
           rdf:resource="http://purl.org/dc/dcmitype/StillImage" />
        <dc:title />
      </cc:Work>
    </rdf:RDF>
  </metadata>
  <g
     inkscape:label="Layer 1"
     inkscape:groupmode="layer"
     id="layer1"
     transform="translate(74.079315,-638.94333)">
    <g
       id="g3766">
      <path
         inkscape:export-ydpi="90"
         inkscape:export-xdpi="90"
         inkscape:export-filename="J:\Newsletters\Semptember\Swim Season\Banner 1.png"
         inkscape:connector-curvature="0"
         id="path6690"
         d="m 588.20411,641.1522 c -8.0096,0.096 -14.36756,2.4316 -19.70839,6.6411 -4.79124,3.9117 -6.63397,8.1422 -4.72781,8.6927 3.5805,-2.2358 7.81608,-3.5334 12.35984,-3.5334 12.83168,0 23.23311,10.3145 23.23311,23.0386 0,12.7242 -10.92905,19.0323 -23.23311,22.6435 -9.87714,2.8988 -23.0878,3.0482 -32.8881,-0.023 -0.0101,0 -0.0101,0 -0.0101,0 -60.20431,-24.2875 -126.30461,-90.2097 -208.21736,-23.882 -48.58034,39.3372 -86.12484,-14.4199 -149.35288,-21.2529 -25.6074,-2.7674 -60.63109,11.6813 -75.35452,22.9702 -24.723806,18.3166 -112.5979956,-82.7423 -163.674244,29.9151 -16.314662,21.0315 -7.178229,71.5825 -0.153284,103.9927 l 815.053618,0 0,-146.0274 c -36.8529,-5.2548 -79.28534,-0.7177 -115.41489,14.3383 -9.40145,-12.7604 -22.48908,-28.1457 -41.57758,-35.1884 -6.13206,-1.6294 -11.53099,-2.3826 -16.33674,-2.3252 z m -27.34043,20.5235 c -1.78757,0.088 -3.20292,4.3822 -3.20292,6.1395 0,1.8142 1.51055,3.2826 3.3792,3.2826 1.86865,0 3.38687,-1.4684 3.38687,-3.2826 0,-1.814 -1.51822,-6.1395 -3.38687,-6.1395 -0.0585,0 -0.11849,-0.01 -0.17628,0 z"
         style="color:#000000;fill:#275e85;fill-opacity:1;fill-rule:nonzero;stroke:none;stroke-width:1;marker:none;visibility:visible;display:inline;overflow:visible;enable-background:accumulate" />
      <path
         inkscape:export-ydpi="90"
         inkscape:export-xdpi="90"
         inkscape:export-filename="J:\Newsletters\Semptember\Swim Season\Banner 1.png"
         sodipodi:nodetypes="sccsscsccccsscsccccccccs"
         inkscape:connector-curvature="0"
         id="path6644"
         d="m 337.13721,642.5276 c -8.0096,0.096 -14.36756,2.4316 -19.70839,6.641 -4.79124,3.9117 -6.63397,8.1421 -4.72781,8.6926 3.58039,-2.2357 7.81608,-3.5332 12.35984,-3.5332 12.83158,0 23.23311,10.3143 23.23311,23.0385 0,6.7597 -1.39599,10.2713 -4.38301,13.0238 -39.66123,4.3705 -45.70899,24.7685 -62.31267,31.2677 -17.52783,6.8609 -62.41473,3.8434 -101.25438,-5.3873 -7.22592,-14.3833 -17.62181,-41.1468 -41.33232,-54.8305 -15.36925,-7.039 -26.68392,-7.0198 -36.25974,-1.8237 -5.392272,3.0468 -7.937089,6.9093 -6.153145,7.7732 3.911765,-1.5994 8.311425,-2.1642 12.789035,-1.3981 12.64482,2.1637 21.12405,14.0786 18.94207,26.6175 -0.58056,3.3366 -1.85433,6.3533 -3.64745,8.9433 -31.925638,-4.8674 -62.268812,-0.6729 -82.404179,7.4618 -26.48213,10.6986 -37.7615129,23.8287 -85.821797,8.267 l 2.45214,93.0737 802.624806,0 0,-81.3036 C 736.76596,706.0446 701.7338,683.5859 646.83877,683.772 c -74.28345,-1.1044 -83.96898,43.9555 -109.24652,47.612 -46.69334,5.5883 -72.55799,-26.1789 -132.67891,-37.7415 -9.53507,-12.3611 -24.52362,-38.8619 -51.43172,-48.7898 -6.13217,-1.6293 -11.53876,-2.3826 -16.34441,-2.3251 z"
         style="fill:#79acd4;fill-opacity:1;stroke:none" />
      <path
         inkscape:export-ydpi="90"
         inkscape:export-xdpi="90"
         inkscape:export-filename="J:\Newsletters\Semptember\Swim Season\Banner 1.png"
         id="path6885"
         d="m 413.12685,695.6255 c -5.95085,0.098 -11.08829,1.6767 -15.72543,4.5312 -5.21579,3.3352 -7.5332,7.3281 -5.70408,8.0938 3.81748,-1.8098 8.18688,-2.6154 12.70018,-2.0938 12.74527,1.4731 24.42873,13.9325 21.33492,26.2812 -5.47194,21.8408 -30.74797,21.9445 -51.14714,16.2813 -27.68814,-7.6867 -53.9112,-27.2883 -94.38433,-28.4687 -87.9356,-2.5648 -93.37013,29.4374 -126.59171,44.625 -23.84494,8.96 -44.11806,-40.208 -79.635789,-53.3126 -16.35258,-4.3449 -27.506714,-2.4226 -36.051995,4.3126 -4.791436,3.9115 -6.633264,8.1369 -4.727198,8.6874 3.580594,-2.2358 7.841385,-3.5312 12.385045,-3.5312 12.831687,0 23.225855,10.307 23.225855,23.0312 0,7.1102 -3.246494,13.3516 -8.351255,17.4688 -45.831817,-17.8005 -89.954719,-52.5248 -133.713774,-47.5938 l -0.819464,99.5 835.656305,0 0,-7.0312 c -72.3913,-48.1099 -120.98928,-93.3177 -210.45037,-93.75 -38.52672,0.1256 -58.17753,14.4822 -80.1401,27.25 -7.85299,-13.7845 -19.07025,-30.6514 -37.28099,-39.875 -7.86761,-3.0965 -14.62774,-4.5043 -20.57868,-4.4062 z"
         style="color:#000000;fill:#5599ff;fill-opacity:1;fill-rule:nonzero;stroke:none;stroke-width:1;marker:none;visibility:visible;display:inline;overflow:visible;enable-background:accumulate"
         inkscape:connector-curvature="0" />
      <path
         inkscape:export-ydpi="90"
         inkscape:export-xdpi="90"
         inkscape:export-filename="J:\Newsletters\Semptember\Swim Season\Banner 1.png"
         style="color:#000000;fill:#79acd4;fill-opacity:1;fill-rule:nonzero;stroke:none;marker:none;visibility:visible;display:inline;overflow:visible;enable-background:accumulate"
         d="m 90.529152,682.9634 c -1.787775,0.088 -3.210694,4.3821 -3.210694,6.1396 0,1.8141 1.518217,3.2901 3.38687,3.2901 1.868653,0 3.379207,-1.476 3.379207,-3.2901 0,-1.8141 -1.510554,-6.1396 -3.379207,-6.1396 -0.05849,0 -0.118593,-0.01 -0.176176,0 z"
         id="path7499"
         inkscape:connector-curvature="0"
         sodipodi:nodetypes="cssssc" />
    </g>
  </g>
</svg>
